<svg width="20" height="20" viewBox="0 0 20 20" fill="none" xmlns="http://www.w3.org/2000/svg">
<path d="M10 0.5C8.12108 0.5 6.28435 1.05717 4.72209 2.10104C3.15982 3.14491 1.94218 4.62861 1.22315 6.36451C0.504116 8.10041 0.315985 10.0105 0.682544 11.8534C1.0491 13.6962 1.95389 15.3889 3.28249 16.7175C4.61109 18.0461 6.30383 18.9509 8.14665 19.3175C9.98947 19.684 11.8996 19.4959 13.6355 18.7769C15.3714 18.0578 16.8551 16.8402 17.899 15.2779C18.9428 13.7156 19.5 11.8789 19.5 10C19.4974 7.48126 18.4956 5.06643 16.7146 3.28541C14.9336 1.50439 12.5187 0.502647 10 0.5ZM9.5 4C9.69699 4 9.89204 4.0388 10.074 4.11418C10.256 4.18956 10.4214 4.30005 10.5607 4.43934C10.7 4.57863 10.8104 4.74399 10.8858 4.92597C10.9612 5.10796 11 5.30302 11 5.5C11 5.69698 10.9612 5.89204 10.8858 6.07403C10.8104 6.25601 10.7 6.42137 10.5607 6.56066C10.4214 6.69995 10.256 6.81044 10.074 6.88582C9.89204 6.9612 9.69699 7 9.5 7C9.10218 7 8.72065 6.84196 8.43934 6.56066C8.15804 6.27936 8 5.89782 8 5.5C8 5.10218 8.15804 4.72064 8.43934 4.43934C8.72065 4.15804 9.10218 4 9.5 4ZM12 15H8C7.73479 15 7.48043 14.8946 7.2929 14.7071C7.10536 14.5196 7 14.2652 7 14C7 13.7348 7.10536 13.4804 7.2929 13.2929C7.48043 13.1054 7.73479 13 8 13H9V10H8C7.73479 10 7.48043 9.89464 7.2929 9.70711C7.10536 9.51957 7 9.26522 7 9C7 8.73478 7.10536 8.48043 7.2929 8.29289C7.48043 8.10536 7.73479 8 8 8H10C10.2652 8 10.5196 8.10536 10.7071 8.29289C10.8946 8.48043 11 8.73478 11 9V13H12C12.2652 13 12.5196 13.1054 12.7071 13.2929C12.8946 13.4804 13 13.7348 13 14C13 14.2652 12.8946 14.5196 12.7071 14.7071C12.5196 14.8946 12.2652 15 12 15Z" fill="#4F46E5"/>
</svg>
