<svg width="21" height="21" viewBox="0 0 21 21" fill="none" xmlns="http://www.w3.org/2000/svg">
<path d="M5.29387 7.5065C5.29387 6.18473 5.81894 4.9171 6.75357 3.98247C7.6882 3.04784 8.95583 2.52277 10.2776 2.52277C11.5994 2.52277 12.867 3.04784 13.8016 3.98247C14.7363 4.9171 15.2613 6.18473 15.2613 7.5065C15.2613 13.3209 17.7532 14.9821 17.7532 14.9821H2.802C2.802 14.9821 5.29387 13.3209 5.29387 7.5065Z" stroke="black" stroke-width="1.66124" stroke-linecap="round" stroke-linejoin="round"/>
<path d="M8.8634 18.307C9.00243 18.5599 9.20682 18.7708 9.45521 18.9177C9.70361 19.0646 9.98689 19.1421 10.2755 19.1421C10.564 19.1421 10.8473 19.0646 11.0957 18.9177C11.3441 18.7708 11.5485 18.5599 11.6875 18.307" stroke="black" stroke-width="1.66124" stroke-linecap="round" stroke-linejoin="round"/>
</svg>
