<svg width="20" height="18" viewBox="0 0 20 18" fill="none" xmlns="http://www.w3.org/2000/svg">
<path fill-rule="evenodd" clip-rule="evenodd" d="M0.787109 1.5472C0.787109 1.30979 0.881421 1.0821 1.0493 0.914225C1.21717 0.74635 1.44486 0.652039 1.68227 0.652039H18.9887C19.2261 0.652039 19.4538 0.74635 19.6217 0.914225C19.7896 1.0821 19.8839 1.30979 19.8839 1.5472C19.8839 1.78461 19.7896 2.0123 19.6217 2.18017C19.4538 2.34805 19.2261 2.44236 18.9887 2.44236H1.68227C1.44486 2.44236 1.21717 2.34805 1.0493 2.18017C0.881421 2.0123 0.787109 1.78461 0.787109 1.5472ZM0.787109 6.52071C0.787109 6.2833 0.881421 6.05561 1.0493 5.88774C1.21717 5.71986 1.44486 5.62555 1.68227 5.62555H18.9887C19.2261 5.62555 19.4538 5.71986 19.6217 5.88774C19.7896 6.05561 19.8839 6.2833 19.8839 6.52071C19.8839 6.75812 19.7896 6.98581 19.6217 7.15369C19.4538 7.32156 19.2261 7.41587 18.9887 7.41587H1.68227C1.44486 7.41587 1.21717 7.32156 1.0493 7.15369C0.881421 6.98581 0.787109 6.75812 0.787109 6.52071ZM0.787109 11.493C0.787109 11.2556 0.881421 11.0279 1.0493 10.8601C1.21717 10.6922 1.44486 10.5979 1.68227 10.5979H18.9887C19.2261 10.5979 19.4538 10.6922 19.6217 10.8601C19.7896 11.0279 19.8839 11.2556 19.8839 11.493C19.8839 11.7304 19.7896 11.9581 19.6217 12.126C19.4538 12.2939 19.2261 12.3882 18.9887 12.3882H1.68227C1.44486 12.3882 1.21717 12.2939 1.0493 12.126C0.881421 11.9581 0.787109 11.7304 0.787109 11.493ZM0.787109 16.4665C0.787109 16.2291 0.881421 16.0014 1.0493 15.8336C1.21717 15.6657 1.44486 15.5714 1.68227 15.5714H18.9887C19.2261 15.5714 19.4538 15.6657 19.6217 15.8336C19.7896 16.0014 19.8839 16.2291 19.8839 16.4665C19.8839 16.704 19.7896 16.9316 19.6217 17.0995C19.4538 17.2674 19.2261 17.3617 18.9887 17.3617H1.68227C1.44486 17.3617 1.21717 17.2674 1.0493 17.0995C0.881421 16.9316 0.787109 16.704 0.787109 16.4665Z" fill="#667085"/>
</svg>
