<svg width="19" height="18" viewBox="0 0 19 18" fill="none" xmlns="http://www.w3.org/2000/svg">
<path d="M8.64097 3.23343C8.96006 1.91812 10.8311 1.91812 11.1502 3.23343C11.1981 3.43102 11.292 3.61452 11.4242 3.76898C11.5564 3.92345 11.7232 4.04452 11.911 4.12234C12.0988 4.20016 12.3024 4.23252 12.5051 4.21681C12.7078 4.20109 12.9039 4.13774 13.0775 4.0319C14.2333 3.3278 15.5568 4.6506 14.8527 5.8071C14.747 5.98062 14.6838 6.17663 14.6681 6.3792C14.6524 6.58176 14.6847 6.78517 14.7625 6.97289C14.8402 7.1606 14.9611 7.32733 15.1154 7.45951C15.2697 7.5917 15.453 7.68561 15.6504 7.73362C16.9657 8.05271 16.9657 9.92379 15.6504 10.2429C15.4528 10.2908 15.2693 10.3846 15.1149 10.5168C14.9604 10.649 14.8393 10.8158 14.7615 11.0036C14.6837 11.1915 14.6513 11.395 14.667 11.5977C14.6828 11.8004 14.7461 11.9966 14.852 12.1701C15.556 13.3259 14.2333 14.6494 13.0767 13.9454C12.9032 13.8397 12.7072 13.7764 12.5047 13.7607C12.3021 13.7451 12.0987 13.7774 11.911 13.8551C11.7232 13.9328 11.5565 14.0538 11.4243 14.2081C11.2922 14.3624 11.1982 14.5457 11.1502 14.7431C10.8311 16.0584 8.96006 16.0584 8.64097 14.7431C8.59309 14.5455 8.49924 14.362 8.36704 14.2075C8.23484 14.0531 8.06804 13.932 7.88021 13.8542C7.69238 13.7763 7.48883 13.744 7.28613 13.7597C7.08342 13.7754 6.88729 13.8388 6.7137 13.9446C5.55795 14.6487 4.2344 13.3259 4.93849 12.1694C5.04418 11.9959 5.10744 11.7999 5.12312 11.5973C5.1388 11.3947 5.10646 11.1913 5.02873 11.0036C4.951 10.8159 4.83008 10.6492 4.67579 10.517C4.5215 10.3848 4.33819 10.2909 4.14077 10.2429C2.82547 9.92379 2.82547 8.05271 4.14077 7.73362C4.33837 7.68574 4.52187 7.59189 4.67633 7.45969C4.8308 7.32749 4.95187 7.16069 5.02969 6.97286C5.10751 6.78503 5.13987 6.58148 5.12416 6.37878C5.10844 6.17607 5.04508 5.97995 4.93924 5.80636C4.23515 4.6506 5.55795 3.32705 6.71445 4.03115C7.46349 4.48656 8.43423 4.08358 8.64097 3.23343Z" stroke="#7D8696" stroke-width="1.49807" stroke-linecap="round" stroke-linejoin="round"/>
<path d="M7.64856 8.98831C7.64856 9.58428 7.88531 10.1558 8.30672 10.5773C8.72813 10.9987 9.29969 11.2354 9.89566 11.2354C10.4916 11.2354 11.0632 10.9987 11.4846 10.5773C11.906 10.1558 12.1428 9.58428 12.1428 8.98831C12.1428 8.39234 11.906 7.82078 11.4846 7.39937C11.0632 6.97796 10.4916 6.74121 9.89566 6.74121C9.29969 6.74121 8.72813 6.97796 8.30672 7.39937C7.88531 7.82078 7.64856 8.39234 7.64856 8.98831Z" stroke="#7D8696" stroke-width="1.49807" stroke-linecap="round" stroke-linejoin="round"/>
</svg>
