<svg width="13" height="3" viewBox="0 0 13 3" fill="none" xmlns="http://www.w3.org/2000/svg">
<path fill-rule="evenodd" clip-rule="evenodd" d="M2.625 1.50687C2.625 2.12819 2.12132 2.63187 1.5 2.63187C0.87868 2.63187 0.375 2.12819 0.375 1.50687C0.375 0.885546 0.87868 0.381866 1.5 0.381866C2.12132 0.381866 2.625 0.885546 2.625 1.50687ZM7.625 1.50687C7.625 2.12819 7.12132 2.63187 6.5 2.63187C5.87868 2.63187 5.375 2.12819 5.375 1.50687C5.375 0.885546 5.87868 0.381866 6.5 0.381866C7.12132 0.381866 7.625 0.885546 7.625 1.50687ZM11.5 2.63187C12.1213 2.63187 12.625 2.12819 12.625 1.50687C12.625 0.885546 12.1213 0.381866 11.5 0.381866C10.8787 0.381866 10.375 0.885546 10.375 1.50687C10.375 2.12819 10.8787 2.63187 11.5 2.63187Z" fill="black"/>
</svg>
