<svg width="13" height="13" viewBox="0 0 13 13" fill="none" xmlns="http://www.w3.org/2000/svg">
<path d="M12.8601 7.13325C12.8615 7.10706 12.8615 7.08082 12.8601 7.05463L11.4435 0.679628C11.4084 0.521977 11.3205 0.381035 11.1944 0.280163C11.0683 0.179291 10.9115 0.124546 10.75 0.125003H2.25C2.08874 0.124869 1.93227 0.179761 1.80644 0.280607C1.68061 0.381453 1.59295 0.522215 1.55796 0.679628L0.141292 7.05463C0.139883 7.08082 0.139883 7.10706 0.141292 7.13325C0.134357 7.15793 0.128916 7.183 0.125 7.20834V11.4583C0.125 11.8341 0.274255 12.1944 0.539932 12.4601C0.805609 12.7257 1.16594 12.875 1.54167 12.875H11.4583C11.8341 12.875 12.1944 12.7257 12.4601 12.4601C12.7257 12.1944 12.875 11.8341 12.875 11.4583V7.20834C12.8715 7.18303 12.8666 7.15796 12.8601 7.13325ZM2.81667 1.54167H10.1833L11.2848 6.5H9.73142C9.45649 6.50083 9.18775 6.58164 8.95796 6.73257C8.72817 6.8835 8.54726 7.09803 8.43729 7.35C8.27481 7.72924 8.0046 8.05247 7.66017 8.27961C7.31574 8.50675 6.91223 8.62783 6.49965 8.62783C6.08706 8.62783 5.68355 8.50675 5.33912 8.27961C4.99469 8.05247 4.72448 7.72924 4.562 7.35C4.45253 7.09781 4.27183 6.88306 4.04208 6.73207C3.81233 6.58108 3.54351 6.50043 3.26858 6.5H1.71663L2.81667 1.54167ZM11.4583 11.4583H1.54167V7.91667H3.26363C3.53649 8.54832 3.98826 9.08629 4.56323 9.46424C5.13821 9.84218 5.81123 10.0436 6.49929 10.0436C7.18736 10.0436 7.86038 9.84218 8.43535 9.46424C9.01032 9.08629 9.46209 8.54832 9.73496 7.91667H11.4583V11.4583Z" fill="#1B1B1B"/>
<path d="M4.375 3.66667H8.625C8.81286 3.66667 8.99303 3.59204 9.12587 3.4592C9.25871 3.32637 9.33333 3.1462 9.33333 2.95834C9.33333 2.77047 9.25871 2.59031 9.12587 2.45747C8.99303 2.32463 8.81286 2.25 8.625 2.25H4.375C4.18714 2.25 4.00697 2.32463 3.87413 2.45747C3.74129 2.59031 3.66667 2.77047 3.66667 2.95834C3.66667 3.1462 3.74129 3.32637 3.87413 3.4592C4.00697 3.59204 4.18714 3.66667 4.375 3.66667Z" fill="#1B1B1B"/>
<path d="M3.66667 5.79167H9.33333C9.5212 5.79167 9.70136 5.71704 9.8342 5.5842C9.96704 5.45136 10.0417 5.2712 10.0417 5.08334C10.0417 4.89547 9.96704 4.71531 9.8342 4.58247C9.70136 4.44963 9.5212 4.375 9.33333 4.375H3.66667C3.4788 4.375 3.29864 4.44963 3.1658 4.58247C3.03296 4.71531 2.95833 4.89547 2.95833 5.08334C2.95833 5.2712 3.03296 5.45136 3.1658 5.5842C3.29864 5.71704 3.4788 5.79167 3.66667 5.79167Z" fill="#1B1B1B"/>
</svg>
