<svg width="13" height="17" viewBox="0 0 13 17" fill="none" xmlns="http://www.w3.org/2000/svg">
<path d="M8.44764 0.549957H2.0802C1.04633 0.549957 0.2052 1.39108 0.2052 2.42496V14.675C0.2052 15.7088 1.04633 16.55 2.0802 16.55H11.0142C12.0481 16.55 12.8892 15.7088 12.8892 14.675V5.01421L8.44764 0.549957ZM8.79545 2.67183L10.7608 4.64718H9.42045C9.07582 4.64718 8.79545 4.3668 8.79545 4.02218V2.67183ZM11.0142 15.3H2.0802C1.73558 15.3 1.4552 15.0196 1.4552 14.675V2.42496C1.4552 2.08033 1.73558 1.79996 2.0802 1.79996H7.54548V4.02218C7.54548 5.05605 8.38661 5.89718 9.42048 5.89718H11.6392V14.675C11.6392 15.0196 11.3588 15.3 11.0142 15.3ZM9.13064 9.71652L8.24676 10.6004L7.1427 9.49633V13.5187H5.8927V9.49633L4.78864 10.6004L3.90476 9.71652L6.5177 7.10358L9.13064 9.71652Z" fill="black"/>
</svg>
