<svg width="20" height="20" viewBox="0 0 20 20" fill="none" xmlns="http://www.w3.org/2000/svg">
<path d="M7.31507 2.43829H3.25114C2.80225 2.43829 2.43835 2.80219 2.43835 3.25108V7.31501C2.43835 7.7639 2.80225 8.12779 3.25114 8.12779H7.31507C7.76396 8.12779 8.12785 7.7639 8.12785 7.31501V3.25108C8.12785 2.80219 7.76396 2.43829 7.31507 2.43829Z" stroke="#4F46E5" stroke-width="1.62557" stroke-linecap="round" stroke-linejoin="round"/>
<path d="M7.31507 11.3789H3.25114C2.80225 11.3789 2.43835 11.7428 2.43835 12.1917V16.2556C2.43835 16.7045 2.80225 17.0684 3.25114 17.0684H7.31507C7.76396 17.0684 8.12785 16.7045 8.12785 16.2556V12.1917C8.12785 11.7428 7.76396 11.3789 7.31507 11.3789Z" stroke="#4F46E5" stroke-width="1.62557" stroke-linecap="round" stroke-linejoin="round"/>
<path d="M11.379 3.2511H17.0685" stroke="#4F46E5" stroke-width="1.62557" stroke-linecap="round" stroke-linejoin="round"/>
<path d="M11.379 7.31503H17.0685" stroke="#4F46E5" stroke-width="1.62557" stroke-linecap="round" stroke-linejoin="round"/>
<path d="M11.379 12.1917H17.0685" stroke="#4F46E5" stroke-width="1.62557" stroke-linecap="round" stroke-linejoin="round"/>
<path d="M11.379 16.2556H17.0685" stroke="#4F46E5" stroke-width="1.62557" stroke-linecap="round" stroke-linejoin="round"/>
</svg>
