<svg width="20" height="20" viewBox="0 0 20 20" fill="none" xmlns="http://www.w3.org/2000/svg">
<path fill-rule="evenodd" clip-rule="evenodd" d="M3.23394 0.45166C2.52171 0.45166 1.83865 0.734594 1.33502 1.23822C0.831396 1.74185 0.548462 2.42491 0.548462 3.13714V6.12101C0.548462 6.83325 0.831396 7.51631 1.33502 8.01994C1.83865 8.52356 2.52171 8.80649 3.23394 8.80649H6.21781C6.93005 8.80649 7.61311 8.52356 8.11674 8.01994C8.62036 7.51631 8.9033 6.83325 8.9033 6.12101V3.13714C8.9033 2.42491 8.62036 1.74185 8.11674 1.23822C7.61311 0.734594 6.93005 0.45166 6.21781 0.45166H3.23394ZM3.23394 11.1936C2.52171 11.1936 1.83865 11.4765 1.33502 11.9802C0.831396 12.4838 0.548462 13.1668 0.548462 13.8791V16.8629C0.548462 17.5752 0.831396 18.2582 1.33502 18.7619C1.83865 19.2655 2.52171 19.5484 3.23394 19.5484H6.21781C6.93005 19.5484 7.61311 19.2655 8.11674 18.7619C8.62036 18.2582 8.9033 17.5752 8.9033 16.8629V13.8791C8.9033 13.1668 8.62036 12.4838 8.11674 11.9802C7.61311 11.4765 6.93005 11.1936 6.21781 11.1936H3.23394ZM13.9759 0.45166C13.2636 0.45166 12.5806 0.734594 12.077 1.23822C11.5733 1.74185 11.2904 2.42491 11.2904 3.13714V6.12101C11.2904 6.83325 11.5733 7.51631 12.077 8.01994C12.5806 8.52356 13.2636 8.80649 13.9759 8.80649H16.9597C17.672 8.80649 18.355 8.52356 18.8587 8.01994C19.3623 7.51631 19.6452 6.83325 19.6452 6.12101V3.13714C19.6452 2.42491 19.3623 1.74185 18.8587 1.23822C18.355 0.734594 17.672 0.45166 16.9597 0.45166H13.9759ZM13.9759 11.1936C13.2636 11.1936 12.5806 11.4765 12.077 11.9802C11.5733 12.4838 11.2904 13.1668 11.2904 13.8791V16.8629C11.2904 17.5752 11.5733 18.2582 12.077 18.7619C12.5806 19.2655 13.2636 19.5484 13.9759 19.5484H16.9597C17.672 19.5484 18.355 19.2655 18.8587 18.7619C19.3623 18.2582 19.6452 17.5752 19.6452 16.8629V13.8791C19.6452 13.1668 19.3623 12.4838 18.8587 11.9802C18.355 11.4765 17.672 11.1936 16.9597 11.1936H13.9759Z" fill="#667085"/>
</svg>
