<svg width="21" height="20" viewBox="0 0 21 20" fill="none" xmlns="http://www.w3.org/2000/svg">
<path fill-rule="evenodd" clip-rule="evenodd" d="M14.6855 1.52588e-05C13.9732 1.52588e-05 13.2902 0.282949 12.7866 0.786575C12.2829 1.2902 12 1.97326 12 2.6855V5.66937C12 6.3816 12.2829 7.06466 12.7866 7.56829C13.2902 8.07192 13.9732 8.35485 14.6855 8.35485H17.6694C18.3816 8.35485 19.0646 8.07192 19.5683 7.56829C20.0719 7.06466 20.3548 6.3816 20.3548 5.66937V2.6855C20.3548 1.97326 20.0719 1.2902 19.5683 0.786575C19.0646 0.282949 18.3816 1.52588e-05 17.6694 1.52588e-05H14.6855Z" fill="#667085"/>
<path d="M1.33502 0.786574C1.83865 0.282949 2.52171 1.52588e-05 3.23394 1.52588e-05H6.21781C6.93005 1.52588e-05 7.61311 0.282949 8.11674 0.786574C8.62036 1.2902 8.9033 1.97326 8.9033 2.6855V17.3145C8.9033 18.0268 8.62036 18.7098 8.11674 19.2135C7.61311 19.7171 6.93005 20 6.21781 20H3.23394C2.52171 20 1.83865 19.7171 1.33502 19.2135C0.831396 18.7098 0.548462 18.0268 0.548462 17.3145V2.6855C0.548462 1.97326 0.831396 1.2902 1.33502 0.786574Z" fill="#667085"/>
</svg>
