<svg width="22" height="18" viewBox="0 0 22 18" fill="none" xmlns="http://www.w3.org/2000/svg">
<path d="M3.98701 7.04126C3.72337 9.05026 3.56628 11.0717 3.51639 13.0972C6.27573 14.2445 8.91772 15.6536 11.4058 17.3049C13.8942 15.6535 16.5365 14.2445 19.2962 13.0972C19.2463 11.0717 19.0892 9.05026 18.8256 7.04126M18.8256 7.04126C19.6643 6.76074 20.5145 6.50122 21.3733 6.26459C18.2453 4.08177 14.9062 2.21514 11.4058 0.692444C7.90536 2.21546 4.56633 4.08241 1.43835 6.26554C2.29456 6.50086 3.14411 6.75953 3.98605 7.04126C6.54393 7.89732 9.02576 8.96391 11.4058 10.23C13.7855 8.9639 16.268 7.8973 18.8256 7.04126ZM6.37368 11.6717C6.56434 11.6717 6.74719 11.5963 6.88201 11.4621C7.01682 11.3279 7.09256 11.1459 7.09256 10.9561C7.09256 10.7663 7.01682 10.5843 6.88201 10.4501C6.74719 10.3159 6.56434 10.2405 6.37368 10.2405C6.18302 10.2405 6.00018 10.3159 5.86536 10.4501C5.73054 10.5843 5.65481 10.7663 5.65481 10.9561C5.65481 11.1459 5.73054 11.3279 5.86536 11.4621C6.00018 11.5963 6.18302 11.6717 6.37368 11.6717ZM6.37368 11.6717V8.16523C8.00001 7.15894 9.67984 6.24099 11.4058 5.41541M4.68959 16.4357C5.22441 15.9046 5.64852 15.2735 5.93753 14.5788C6.22654 13.884 6.37477 13.1392 6.37368 12.3873V10.9561" stroke="black" stroke-width="1.24593" stroke-linecap="round" stroke-linejoin="round"/>
</svg>
