<svg width="20" height="18" viewBox="0 0 20 18" fill="none" xmlns="http://www.w3.org/2000/svg">
<path fill-rule="evenodd" clip-rule="evenodd" d="M0.787109 1.54018C0.787109 1.30277 0.881421 1.07508 1.0493 0.907206C1.21717 0.739331 1.44486 0.64502 1.68227 0.64502H18.9887C19.2261 0.64502 19.4538 0.739331 19.6217 0.907206C19.7896 1.07508 19.8839 1.30277 19.8839 1.54018C19.8839 1.77759 19.7896 2.00528 19.6217 2.17315C19.4538 2.34103 19.2261 2.43534 18.9887 2.43534H1.68227C1.44486 2.43534 1.21717 2.34103 1.0493 2.17315C0.881421 2.00528 0.787109 1.77759 0.787109 1.54018ZM0.787109 6.51369C0.787109 6.27628 0.881421 6.0486 1.0493 5.88072C1.21717 5.71284 1.44486 5.61853 1.68227 5.61853H18.9887C19.2261 5.61853 19.4538 5.71284 19.6217 5.88072C19.7896 6.0486 19.8839 6.27628 19.8839 6.51369C19.8839 6.75111 19.7896 6.97879 19.6217 7.14667C19.4538 7.31454 19.2261 7.40885 18.9887 7.40885H1.68227C1.44486 7.40885 1.21717 7.31454 1.0493 7.14667C0.881421 6.97879 0.787109 6.75111 0.787109 6.51369ZM0.787109 11.486C0.787109 11.2486 0.881421 11.0209 1.0493 10.853C1.21717 10.6852 1.44486 10.5909 1.68227 10.5909H18.9887C19.2261 10.5909 19.4538 10.6852 19.6217 10.853C19.7896 11.0209 19.8839 11.2486 19.8839 11.486C19.8839 11.7234 19.7896 11.9511 19.6217 12.119C19.4538 12.2869 19.2261 12.3812 18.9887 12.3812H1.68227C1.44486 12.3812 1.21717 12.2869 1.0493 12.119C0.881421 11.9511 0.787109 11.7234 0.787109 11.486ZM0.787109 16.4595C0.787109 16.2221 0.881421 15.9944 1.0493 15.8266C1.21717 15.6587 1.44486 15.5644 1.68227 15.5644H18.9887C19.2261 15.5644 19.4538 15.6587 19.6217 15.8266C19.7896 15.9944 19.8839 16.2221 19.8839 16.4595C19.8839 16.6969 19.7896 16.9246 19.6217 17.0925C19.4538 17.2604 19.2261 17.3547 18.9887 17.3547H1.68227C1.44486 17.3547 1.21717 17.2604 1.0493 17.0925C0.881421 16.9246 0.787109 16.6969 0.787109 16.4595Z" fill="#4F46E5"/>
</svg>