<svg width="19" height="18" viewBox="0 0 19 18" fill="none" xmlns="http://www.w3.org/2000/svg">
<path d="M10.7144 3.74506H16.7066" stroke="#7D8696" stroke-width="1.49807" stroke-linecap="round" stroke-linejoin="round"/>
<path d="M10.7144 6.74121H14.4595" stroke="#7D8696" stroke-width="1.49807" stroke-linecap="round" stroke-linejoin="round"/>
<path d="M10.7144 11.2354H16.7066" stroke="#7D8696" stroke-width="1.49807" stroke-linecap="round" stroke-linejoin="round"/>
<path d="M10.7144 14.2315H14.4595" stroke="#7D8696" stroke-width="1.49807" stroke-linecap="round" stroke-linejoin="round"/>
<path d="M3.22388 3.74507C3.22388 3.54641 3.30279 3.35589 3.44326 3.21542C3.58373 3.07495 3.77425 2.99603 3.97291 2.99603H6.96905C7.1677 2.99603 7.35822 3.07495 7.49869 3.21542C7.63916 3.35589 7.71808 3.54641 7.71808 3.74507V6.7412C7.71808 6.93986 7.63916 7.13038 7.49869 7.27085C7.35822 7.41132 7.1677 7.49023 6.96905 7.49023H3.97291C3.77425 7.49023 3.58373 7.41132 3.44326 7.27085C3.30279 7.13038 3.22388 6.93986 3.22388 6.7412V3.74507Z" stroke="#7D8696" stroke-width="1.49807" stroke-linecap="round" stroke-linejoin="round"/>
<path d="M3.22388 11.2354C3.22388 11.0367 3.30279 10.8462 3.44326 10.7057C3.58373 10.5652 3.77425 10.4863 3.97291 10.4863H6.96905C7.1677 10.4863 7.35822 10.5652 7.49869 10.7057C7.63916 10.8462 7.71808 11.0367 7.71808 11.2354V14.2315C7.71808 14.4302 7.63916 14.6207 7.49869 14.7611C7.35822 14.9016 7.1677 14.9805 6.96905 14.9805H3.97291C3.77425 14.9805 3.58373 14.9016 3.44326 14.7611C3.30279 14.6207 3.22388 14.4302 3.22388 14.2315V11.2354Z" stroke="#7D8696" stroke-width="1.49807" stroke-linecap="round" stroke-linejoin="round"/>
</svg>
