<svg width="7" height="10" viewBox="0 0 7 10" fill="none" xmlns="http://www.w3.org/2000/svg">
<path fill-rule="evenodd" clip-rule="evenodd" d="M1.09845 2.93865C0.922709 3.11439 0.922709 3.39931 1.09845 3.57505C1.27419 3.75078 1.55911 3.75078 1.73485 3.57505L3.66665 1.64324L5.59845 3.57505C5.77419 3.75078 6.05911 3.75078 6.23486 3.57505C6.41056 3.39931 6.41056 3.11439 6.23486 2.93865L3.98485 0.688654C3.90045 0.604264 3.78599 0.556854 3.66665 0.556854C3.5473 0.556854 3.43284 0.604264 3.34845 0.688654L1.09845 2.93865ZM6.23486 7.07505C6.41056 6.89931 6.41056 6.6144 6.23486 6.43865C6.05911 6.26292 5.77419 6.26292 5.59845 6.43865L3.66665 8.37046L1.73485 6.43865C1.55911 6.26292 1.27419 6.26292 1.09845 6.43865C0.922709 6.6144 0.922709 6.89931 1.09845 7.07505L3.34845 9.32506C3.52419 9.50076 3.80911 9.50076 3.98485 9.32506L6.23486 7.07505Z" fill="#667085"/>
</svg>
