<svg width="148" height="23" viewBox="0 0 148 23" fill="none" xmlns="http://www.w3.org/2000/svg">
<path d="M30.7077 17.2719C29.7993 17.2719 28.9831 17.114 28.2591 16.798C27.5482 16.4689 26.9887 16.0213 26.5806 15.4552C26.1725 14.876 25.9619 14.2112 25.9487 13.4608H27.8642C27.93 14.1059 28.1933 14.6522 28.654 15.0998C29.1279 15.5342 29.8125 15.7514 30.7077 15.7514C31.5634 15.7514 32.2347 15.5408 32.7218 15.1195C33.2221 14.6851 33.4722 14.1322 33.4722 13.4608C33.4722 12.9342 33.3274 12.5064 33.0378 12.1773C32.7482 11.8482 32.3861 11.5981 31.9517 11.4269C31.5173 11.2558 30.9315 11.0715 30.1943 10.874C29.2859 10.6371 28.5553 10.4001 28.0024 10.1631C27.4626 9.92617 26.9953 9.55757 26.6004 9.05732C26.2186 8.54391 26.0277 7.85936 26.0277 7.00367C26.0277 6.25329 26.2186 5.58849 26.6004 5.00926C26.9821 4.43002 27.5153 3.98243 28.1998 3.66648C28.8976 3.35054 29.694 3.19256 30.5892 3.19256C31.8793 3.19256 32.9325 3.51509 33.7487 4.16015C34.578 4.80521 35.0454 5.6609 35.1507 6.72721H33.176C33.1102 6.20064 32.8337 5.73988 32.3466 5.34495C31.8596 4.93685 31.2145 4.7328 30.4115 4.7328C29.6611 4.7328 29.049 4.93027 28.575 5.3252C28.1011 5.70697 27.8642 6.24671 27.8642 6.94443C27.8642 7.44468 28.0024 7.85277 28.2788 8.16872C28.5685 8.48467 28.9173 8.72821 29.3254 8.89935C29.7467 9.05732 30.3325 9.24162 31.0829 9.45225C31.9912 9.70238 32.7218 9.9525 33.2747 10.2026C33.8276 10.4396 34.3016 10.8148 34.6965 11.3282C35.0914 11.8284 35.2889 12.513 35.2889 13.3818C35.2889 14.0532 35.1112 14.6851 34.7557 15.2775C34.4003 15.8699 33.8737 16.3504 33.176 16.719C32.4783 17.0876 31.6555 17.2719 30.7077 17.2719Z" fill="white"/>
<path d="M46.839 6.31253V17.1337H45.042V15.5342C44.6998 16.0871 44.2193 16.5216 43.6005 16.8375C42.995 17.1403 42.3236 17.2917 41.5864 17.2917C40.7439 17.2917 39.9869 17.1205 39.3155 16.7783C38.6441 16.4228 38.111 15.8962 37.716 15.1985C37.3343 14.5008 37.1434 13.6517 37.1434 12.6512V6.31253H38.9206V12.4143C38.9206 13.4806 39.1905 14.3033 39.7302 14.8826C40.2699 15.4487 41.0071 15.7317 41.9418 15.7317C42.9028 15.7317 43.6598 15.4355 44.2127 14.8431C44.7656 14.2507 45.042 13.3884 45.042 12.2563V6.31253H46.839Z" fill="white"/>
<path d="M50.9788 8.30695C51.3343 7.68822 51.8609 7.17481 52.5586 6.76671C53.2695 6.34545 54.0922 6.13481 55.0269 6.13481C55.9879 6.13481 56.8568 6.36519 57.6335 6.82595C58.4233 7.2867 59.0421 7.93834 59.4896 8.78087C59.9372 9.61023 60.161 10.5778 60.161 11.6836C60.161 12.7763 59.9372 13.7504 59.4896 14.6061C59.0421 15.4618 58.4233 16.1266 57.6335 16.6005C56.8568 17.0745 55.9879 17.3114 55.0269 17.3114C54.1054 17.3114 53.2892 17.1074 52.5783 16.6993C51.8806 16.278 51.3474 15.758 50.9788 15.1393V22.2678H49.1819V6.31253H50.9788V8.30695ZM58.3246 11.6836C58.3246 10.8674 58.16 10.1565 57.8309 9.55099C57.5018 8.94542 57.0542 8.48467 56.4882 8.16872C55.9352 7.85277 55.3231 7.6948 54.6517 7.6948C53.9935 7.6948 53.3813 7.85936 52.8153 8.18847C52.2624 8.50441 51.8148 8.97175 51.4725 9.59048C51.1434 10.196 50.9788 10.9003 50.9788 11.7034C50.9788 12.5196 51.1434 13.237 51.4725 13.8558C51.8148 14.4613 52.2624 14.9287 52.8153 15.2578C53.3813 15.5737 53.9935 15.7317 54.6517 15.7317C55.3231 15.7317 55.9352 15.5737 56.4882 15.2578C57.0542 14.9287 57.5018 14.4613 57.8309 13.8558C58.16 13.237 58.3246 12.513 58.3246 11.6836Z" fill="white"/>
<path d="M63.6321 8.30695C63.9876 7.68822 64.5141 7.17481 65.2119 6.76671C65.9227 6.34545 66.7455 6.13481 67.6802 6.13481C68.6412 6.13481 69.51 6.36519 70.2867 6.82595C71.0766 7.2867 71.6953 7.93834 72.1429 8.78087C72.5905 9.61023 72.8143 10.5778 72.8143 11.6836C72.8143 12.7763 72.5905 13.7504 72.1429 14.6061C71.6953 15.4618 71.0766 16.1266 70.2867 16.6005C69.51 17.0745 68.6412 17.3114 67.6802 17.3114C66.7587 17.3114 65.9425 17.1074 65.2316 16.6993C64.5339 16.278 64.0007 15.758 63.6321 15.1393V22.2678H61.8352V6.31253H63.6321V8.30695ZM70.9779 11.6836C70.9779 10.8674 70.8133 10.1565 70.4842 9.55099C70.1551 8.94542 69.7075 8.48467 69.1414 8.16872C68.5885 7.85277 67.9764 7.6948 67.305 7.6948C66.6468 7.6948 66.0346 7.85936 65.4686 8.18847C64.9157 8.50441 64.4681 8.97175 64.1258 9.59048C63.7967 10.196 63.6321 10.9003 63.6321 11.7034C63.6321 12.5196 63.7967 13.237 64.1258 13.8558C64.4681 14.4613 64.9157 14.9287 65.4686 15.2578C66.0346 15.5737 66.6468 15.7317 67.305 15.7317C67.9764 15.7317 68.5885 15.5737 69.1414 15.2578C69.7075 14.9287 70.1551 14.4613 70.4842 13.8558C70.8133 13.237 70.9779 12.513 70.9779 11.6836Z" fill="white"/>
<path d="M76.2854 2.52118V17.1337H74.4885V2.52118H76.2854Z" fill="white"/>
<path d="M87.9773 6.31253L81.4609 22.2283H79.6047L81.7373 17.0152L77.3733 6.31253H79.3677L82.7642 15.08L86.1211 6.31253H87.9773Z" fill="white"/>
<path d="M95.1921 17.2719C94.1785 17.2719 93.2701 17.1074 92.4671 16.7783C91.664 16.4491 91.019 15.9621 90.5319 15.317C90.058 14.6719 89.8079 13.8952 89.7815 12.9869H93.3754C93.4281 13.5003 93.6058 13.8952 93.9086 14.1717C94.2114 14.435 94.6063 14.5666 95.0934 14.5666C95.5936 14.5666 95.9886 14.4547 96.2782 14.2309C96.5678 13.994 96.7126 13.6715 96.7126 13.2634C96.7126 12.9211 96.5941 12.638 96.3572 12.4143C96.1334 12.1905 95.8503 12.0062 95.5081 11.8613C95.179 11.7165 94.705 11.552 94.0863 11.3677C93.1911 11.0912 92.4605 10.8148 91.8944 10.5383C91.3284 10.2619 90.8413 9.85377 90.4332 9.31403C90.0251 8.77428 89.821 8.06999 89.821 7.20113C89.821 5.91102 90.2884 4.90394 91.223 4.1799C92.1577 3.44269 93.3754 3.07409 94.8762 3.07409C96.4032 3.07409 97.6341 3.44269 98.5688 4.1799C99.5035 4.90394 100.004 5.9176 100.07 7.22088H96.4164C96.3901 6.77329 96.2255 6.42443 95.9227 6.17431C95.62 5.91102 95.2316 5.77938 94.7577 5.77938C94.3496 5.77938 94.0205 5.89127 93.7704 6.11507C93.5202 6.3257 93.3952 6.63506 93.3952 7.04316C93.3952 7.49075 93.6058 7.83961 94.0271 8.08973C94.4483 8.33986 95.1065 8.60973 96.0017 8.89935C96.8969 9.20213 97.621 9.49175 98.1739 9.7682C98.7399 10.0447 99.227 10.4462 99.6351 10.9727C100.043 11.4993 100.247 12.1773 100.247 13.0066C100.247 13.7965 100.043 14.514 99.6351 15.159C99.2402 15.8041 98.6609 16.3175 97.8974 16.6993C97.1339 17.081 96.2321 17.2719 95.1921 17.2719Z" fill="white"/>
<path d="M100.963 11.6244C100.963 10.4791 101.193 9.47858 101.654 8.62289C102.128 7.7672 102.779 7.10898 103.609 6.64823C104.451 6.18747 105.412 5.9571 106.492 5.9571C107.874 5.9571 109.026 6.31912 109.947 7.04316C110.882 7.7672 111.494 8.78745 111.784 10.1039H108.19C107.887 9.26137 107.301 8.84011 106.433 8.84011C105.814 8.84011 105.32 9.08365 104.952 9.57073C104.583 10.0447 104.399 10.7292 104.399 11.6244C104.399 12.5196 104.583 13.2107 104.952 13.6978C105.32 14.1717 105.814 14.4087 106.433 14.4087C107.301 14.4087 107.887 13.9874 108.19 13.1449H111.784C111.494 14.435 110.882 15.4487 109.947 16.1859C109.013 16.9231 107.861 17.2917 106.492 17.2917C105.412 17.2917 104.451 17.0613 103.609 16.6005C102.779 16.1398 102.128 15.4816 101.654 14.6259C101.193 13.7702 100.963 12.7697 100.963 11.6244Z" fill="white"/>
<path d="M117.915 17.2917C116.835 17.2917 115.861 17.0613 114.992 16.6005C114.136 16.1398 113.458 15.4816 112.958 14.6259C112.471 13.7702 112.228 12.7697 112.228 11.6244C112.228 10.4922 112.478 9.49833 112.978 8.64264C113.478 7.77379 114.163 7.10898 115.032 6.64823C115.9 6.18747 116.875 5.9571 117.954 5.9571C119.034 5.9571 120.008 6.18747 120.877 6.64823C121.745 7.10898 122.43 7.77379 122.93 8.64264C123.431 9.49833 123.681 10.4922 123.681 11.6244C123.681 12.7565 123.424 13.757 122.911 14.6259C122.41 15.4816 121.719 16.1398 120.837 16.6005C119.968 17.0613 118.994 17.2917 117.915 17.2917ZM117.915 14.3692C118.56 14.3692 119.106 14.1322 119.554 13.6583C120.014 13.1844 120.245 12.5064 120.245 11.6244C120.245 10.7424 120.021 10.0644 119.573 9.59048C119.139 9.11656 118.599 8.8796 117.954 8.8796C117.296 8.8796 116.75 9.11656 116.315 9.59048C115.881 10.0512 115.664 10.7292 115.664 11.6244C115.664 12.5064 115.874 13.1844 116.295 13.6583C116.73 14.1322 117.27 14.3692 117.915 14.3692Z" fill="white"/>
<path d="M128.158 7.67505C128.487 7.16164 128.941 6.74696 129.52 6.43101C130.099 6.11507 130.777 5.9571 131.554 5.9571C132.462 5.9571 133.285 6.18747 134.022 6.64823C134.76 7.10898 135.339 7.7672 135.76 8.62289C136.194 9.47858 136.412 10.4725 136.412 11.6046C136.412 12.7368 136.194 13.7373 135.76 14.6061C135.339 15.4618 134.76 16.1266 134.022 16.6005C133.285 17.0613 132.462 17.2917 131.554 17.2917C130.79 17.2917 130.113 17.1337 129.52 16.8178C128.941 16.5018 128.487 16.0937 128.158 15.5935V22.3863H124.781V6.11507H128.158V7.67505ZM132.976 11.6046C132.976 10.7621 132.739 10.1039 132.265 9.62997C131.804 9.14289 131.231 8.89935 130.547 8.89935C129.876 8.89935 129.303 9.14289 128.829 9.62997C128.368 10.1171 128.138 10.7819 128.138 11.6244C128.138 12.4669 128.368 13.1317 128.829 13.6188C129.303 14.1059 129.876 14.3494 130.547 14.3494C131.218 14.3494 131.791 14.1059 132.265 13.6188C132.739 13.1185 132.976 12.4472 132.976 11.6046Z" fill="white"/>
<path d="M147.879 11.4467C147.879 11.7626 147.859 12.0917 147.82 12.434H140.178C140.23 13.1185 140.447 13.6451 140.829 14.0137C141.224 14.3692 141.705 14.5469 142.271 14.5469C143.113 14.5469 143.699 14.1914 144.028 13.4806H147.622C147.438 14.2046 147.102 14.8563 146.615 15.4355C146.141 16.0147 145.542 16.4689 144.818 16.798C144.094 17.1271 143.284 17.2917 142.389 17.2917C141.31 17.2917 140.349 17.0613 139.506 16.6005C138.664 16.1398 138.005 15.4816 137.532 14.6259C137.058 13.7702 136.821 12.7697 136.821 11.6244C136.821 10.4791 137.051 9.47858 137.512 8.62289C137.986 7.7672 138.644 7.10898 139.486 6.64823C140.329 6.18747 141.297 5.9571 142.389 5.9571C143.456 5.9571 144.403 6.18089 145.233 6.62848C146.062 7.07607 146.707 7.71455 147.168 8.54391C147.642 9.37327 147.879 10.3409 147.879 11.4467ZM144.423 10.5581C144.423 9.97883 144.226 9.51807 143.831 9.1758C143.436 8.83352 142.942 8.66239 142.35 8.66239C141.784 8.66239 141.303 8.82694 140.908 9.15605C140.526 9.48516 140.29 9.9525 140.197 10.5581H144.423Z" fill="white"/>
<rect x="1" y="1.61371" width="17.0638" height="17.0638" rx="2.07949" stroke="white" stroke-width="1.84023" stroke-linejoin="round"/>
<path d="M5.76562 10.4977L8.39521 13.0985L14.1335 7.19183" stroke="white" stroke-width="2.14693" stroke-linecap="square"/>
<path d="M5.76562 10.4977L8.39521 13.0985L14.1335 7.19183" stroke="white" stroke-width="2.14693" stroke-linecap="square"/>
</svg>
