<svg width="15" height="16" viewBox="0 0 15 16" fill="none" xmlns="http://www.w3.org/2000/svg">
<path fill-rule="evenodd" clip-rule="evenodd" d="M5.5 3.50687C4.67157 3.50687 4 4.17844 4 5.00687C4 5.8353 4.67157 6.50687 5.5 6.50687C6.32843 6.50687 7 5.8353 7 5.00687C7 4.17844 6.32843 3.50687 5.5 3.50687ZM3 5.50687C3.01671 5.50687 3.03323 5.50605 3.04952 5.50445C3.28022 6.64677 4.28967 7.50687 5.5 7.50687C6.71033 7.50687 7.71978 6.64677 7.95048 5.50445C7.96677 5.50605 7.98329 5.50687 8 5.50687H13.5C13.7761 5.50687 14 5.28301 14 5.00687C14 4.73073 13.7761 4.50687 13.5 4.50687H8C7.98329 4.50687 7.96677 4.50769 7.95048 4.50929C7.71978 3.36696 6.71033 2.50687 5.5 2.50687C4.28967 2.50687 3.28022 3.36696 3.04952 4.50929C3.03323 4.50769 3.01671 4.50687 3 4.50687H1.5C1.22386 4.50687 1 4.73073 1 5.00687C1 5.28301 1.22386 5.50687 1.5 5.50687H3ZM11.9505 11.5045C11.7198 12.6468 10.7103 13.5069 9.5 13.5069C8.28967 13.5069 7.28022 12.6468 7.04952 11.5045C7.03323 11.5061 7.01671 11.5069 7 11.5069H1.5C1.22386 11.5069 1 11.283 1 11.0069C1 10.7308 1.22386 10.5069 1.5 10.5069H7C7.01671 10.5069 7.03323 10.5077 7.04952 10.5093C7.28022 9.36697 8.28967 8.50687 9.5 8.50687C10.7103 8.50687 11.7198 9.36697 11.9505 10.5093C11.9668 10.5077 11.9833 10.5069 12 10.5069H13.5C13.7761 10.5069 14 10.7308 14 11.0069C14 11.283 13.7761 11.5069 13.5 11.5069H12C11.9833 11.5069 11.9668 11.5061 11.9505 11.5045ZM8 11.0069C8 10.1784 8.67157 9.50687 9.5 9.50687C10.3284 9.50687 11 10.1784 11 11.0069C11 11.8353 10.3284 12.5069 9.5 12.5069C8.67157 12.5069 8 11.8353 8 11.0069Z" fill="black"/>
</svg>
