<svg width="18" height="18" viewBox="0 0 18 18" fill="none" xmlns="http://www.w3.org/2000/svg">
<path d="M7.49042 15.5626C6.83846 15.4147 6.21232 15.1701 5.63281 14.8368" stroke="#4F46E5" stroke-width="1.49807" stroke-linecap="round" stroke-linejoin="round"/>
<path d="M10.4866 2.41412C11.9758 2.75424 13.3054 3.58988 14.2577 4.78422C15.21 5.97857 15.7286 7.46085 15.7286 8.98839C15.7286 10.5159 15.21 11.9982 14.2577 13.1926C13.3054 14.3869 11.9758 15.2225 10.4866 15.5627" stroke="#4F46E5" stroke-width="1.49807" stroke-linecap="round" stroke-linejoin="round"/>
<path d="M3.42981 12.8031C3.02121 12.2094 2.71088 11.5539 2.51074 10.8616" stroke="#4F46E5" stroke-width="1.49807" stroke-linecap="round" stroke-linejoin="round"/>
<path d="M2.34009 7.86475C2.45993 7.15317 2.69064 6.47904 3.01422 5.86108L3.1408 5.63263" stroke="#4F46E5" stroke-width="1.49807" stroke-linecap="round" stroke-linejoin="round"/>
<path d="M5.17358 3.42981C5.87442 2.94736 6.66066 2.60267 7.49034 2.41412" stroke="#4F46E5" stroke-width="1.49807" stroke-linecap="round" stroke-linejoin="round"/>
<path d="M8.9883 6.74121L7.49023 8.98831H10.4864L8.9883 11.2354" stroke="#4F46E5" stroke-width="1.49807" stroke-linecap="round" stroke-linejoin="round"/>
</svg>
