<svg width="19" height="18" viewBox="0 0 19 18" fill="none" xmlns="http://www.w3.org/2000/svg">
<path d="M4.67554 5.24308C4.67554 6.03771 4.9912 6.79979 5.55308 7.36167C6.11497 7.92355 6.87705 8.23922 7.67167 8.23922C8.4663 8.23922 9.22837 7.92355 9.79026 7.36167C10.3521 6.79979 10.6678 6.03771 10.6678 5.24308C10.6678 4.44846 10.3521 3.68638 9.79026 3.1245C9.22837 2.56261 8.4663 2.24695 7.67167 2.24695C6.87705 2.24695 6.11497 2.56261 5.55308 3.1245C4.9912 3.68638 4.67554 4.44846 4.67554 5.24308Z" stroke="#7D8696" stroke-width="1.49807" stroke-linecap="round" stroke-linejoin="round"/>
<path d="M3.17749 15.7296V14.2315C3.17749 13.4369 3.49315 12.6748 4.05504 12.1129C4.61692 11.551 5.379 11.2354 6.17362 11.2354H9.16976C9.96438 11.2354 10.7265 11.551 11.2883 12.1129C11.8502 12.6748 12.1659 13.4369 12.1659 14.2315V15.7296" stroke="#7D8696" stroke-width="1.49807" stroke-linecap="round" stroke-linejoin="round"/>
<path d="M12.9149 2.34424C13.5594 2.50925 14.1306 2.88407 14.5386 3.4096C14.9465 3.93513 15.1679 4.58147 15.1679 5.24674C15.1679 5.91201 14.9465 6.55836 14.5386 7.08389C14.1306 7.60942 13.5594 7.98424 12.9149 8.14925" stroke="#7D8696" stroke-width="1.49807" stroke-linecap="round" stroke-linejoin="round"/>
<path d="M16.6602 15.7295V14.2314C16.6564 13.5702 16.4339 12.9287 16.0275 12.4071C15.621 11.8855 15.0534 11.513 14.4131 11.3477" stroke="#7D8696" stroke-width="1.49807" stroke-linecap="round" stroke-linejoin="round"/>
</svg>
